<?xml version="1.0" encoding="UTF-8" standalone="no"?>
<!-- Created with Inkscape (http://www.inkscape.org/) -->

<svg
        width="210mm"
        height="297mm"
        viewBox="0 0 210 297"
        version="1.1"
        id="svg1"
        sodipodi:docname="logo.svg"
        inkscape:version="1.3 (0e150ed6c4, 2023-07-21)"
        xmlns:inkscape="http://www.inkscape.org/namespaces/inkscape"
        xmlns:sodipodi="http://sodipodi.sourceforge.net/DTD/sodipodi-0.dtd"
        xmlns="http://www.w3.org/2000/svg"
        xmlns:rdf="http://www.w3.org/1999/02/22-rdf-syntax-ns#"
        xmlns:cc="http://creativecommons.org/ns#"
        xmlns:dc="http://purl.org/dc/elements/1.1/">
  <metadata
     id="metadata18">
    <rdf:RDF>
      <cc:Work
         rdf:about="">
        <dc:format>image/svg+xml</dc:format>
        <dc:type
           rdf:resource="http://purl.org/dc/dcmitype/StillImage" />
      </cc:Work>
    </rdf:RDF>
  </metadata>
  <sodipodi:namedview
     id="namedview1"
     pagecolor="#ffffff"
     bordercolor="#666666"
     borderopacity="1.0"
     inkscape:showpageshadow="2"
     inkscape:pageopacity="0.0"
     inkscape:pagecheckerboard="0"
     inkscape:deskcolor="#d1d1d1"
     inkscape:document-units="mm"
     showgrid="true"
     inkscape:zoom="0.48441477"
     inkscape:cx="-71.219959"
     inkscape:cy="864.96124"
     inkscape:window-width="1920"
     inkscape:window-height="974"
     inkscape:window-x="-9"
     inkscape:window-y="-9"
     inkscape:window-maximized="1"
     inkscape:current-layer="layer1"
     showguides="false">
    <inkscape:grid
       id="grid1"
       units="px"
       originx="0"
       originy="0"
       spacingx="0.52916667"
       spacingy="0.52916667"
       empcolor="#3f3fff"
       empopacity="0.25098039"
       color="#3f3fff"
       opacity="0.1254902"
       empspacing="5"
       dotted="false"
       gridanglex="30"
       gridanglez="30"
       visible="true" />
  </sodipodi:namedview>
  <defs
     id="defs1" />
  <g
     inkscape:label="Слой 1"
     inkscape:groupmode="layer"
     id="layer1">
    <path
       style="fill:none;stroke:#000000;stroke-width:10;stroke-linecap:butt;stroke-linejoin:miter;stroke-dasharray:none;stroke-opacity:1"
       d="M 21.166675,21.166666 H -26.458329 V 68.825365"
       id="path5"
       sodipodi:nodetypes="ccc" />
    <path
       style="fill:none;stroke:#000000;stroke-width:10;stroke-linecap:butt;stroke-linejoin:miter;stroke-dasharray:none;stroke-opacity:1"
       d="M -26.458329,42.333331 0.4433451,42.496015"
       id="path6"
       sodipodi:nodetypes="cc" />
    <path
       style="fill:none;stroke:#000000;stroke-width:10;stroke-linecap:butt;stroke-linejoin:miter;stroke-dasharray:none;stroke-opacity:1"
       d="m 31.750005,15.875 c 0,0 0,15.571724 0,26.458331 0,15.874999 10.58333,21.166665 21.16666,21.166664 10.58334,-10e-7 21.16667,-5.394511 21.16667,-21.166664 V 15.875"
       id="path7"
       sodipodi:nodetypes="csssc" />
    <path
       style="fill:none;stroke:#000000;stroke-width:10;stroke-linecap:butt;stroke-linejoin:miter;stroke-dasharray:none;stroke-opacity:1"
       d="M 89.958335,68.825369 V 21.166666 h 37.041675 c 5.29166,0 10.31112,5.326162 10.44678,10.583332 0.13655,5.291667 -4.64262,10.583333 -10.44678,10.583333 H 89.958335"
       id="path5-3"
       sodipodi:nodetypes="cscssc" />
    <path
       style="fill:none;stroke:#000000;stroke-width:10;stroke-linecap:butt;stroke-linejoin:miter;stroke-dasharray:none;stroke-opacity:1"
       d="m 105.83334,42.333331 31.75,31.749997 z"
       id="path8"
       sodipodi:nodetypes="ccc" />
    <rect
       style="fill:#ffffff;fill-opacity:1;stroke-width:9.13273;stroke-miterlimit:4;stroke-dasharray:none"
       id="rect8"
       width="26.458332"
       height="8.8272057"
       x="121.70833"
       y="68.791656" />
    <path
       style="fill:none;stroke:#000000;stroke-width:10;stroke-linecap:butt;stroke-linejoin:miter;stroke-dasharray:none;stroke-opacity:1"
       d="m 201.08334,21.166666 c 0,0 -15.57172,0 -26.45833,0 -15.87499,0 -21.16666,10.58333 -21.16666,21.16666 0,10.58334 5.39451,21.166674 21.16666,21.166674 h 26.45833"
       id="path7-5"
       sodipodi:nodetypes="csssc" />
    <path
       style="fill:none;stroke:#000000;stroke-width:10;stroke-linecap:butt;stroke-linejoin:miter;stroke-dasharray:none;stroke-opacity:1"
       d="m 254,68.791661 c 0,0 0,-15.57172 0,-26.45833 0,-15.874993 -10.58333,-21.166663 -21.16665,-21.166663 -10.58334,0 -21.16668,5.39451 -21.16668,21.166663 v 26.45833"
       id="path7-5-0"
       sodipodi:nodetypes="csssc" />
    <path
       style="fill:none;stroke:#000000;stroke-width:10;stroke-linecap:butt;stroke-linejoin:miter;stroke-dasharray:none;stroke-opacity:1"
       d="M 211.66667,47.624997 H 254"
       id="path9" />
    <path
       id="path3"
       style="fill:#000000;fill-opacity:1;stroke:none;stroke-width:0.797;stroke-dasharray:none"
       d="m 117.6936,194.492 c -5.82172,1.6e-4 -10.54104,4.6399 -10.54096,10.36319 -8e-5,5.7233 4.71924,10.36304 10.54096,10.3632 5.82192,1.2e-4 10.54155,-4.6397 10.54147,-10.3632 8e-5,-5.72349 -4.71955,-10.3633 -10.54147,-10.36319 z m -34.437686,2.4257 18.345126,10.58333 -13.053459,18.52084 18.345129,-7.93751 -5.29167,31.75 16.05071,-29.10416 15.69929,29.10416 -4.94027,-31.35622 18.34515,7.54373 -13.40488,-18.52084 18.69655,-10.58333 -24.1541,-1e-5 c 1.81961,2.25897 2.81034,5.05582 2.81172,7.9375 3e-5,7.06596 -5.82549,12.79408 -13.01161,12.79406 -7.18612,2e-5 -13.01164,-5.7281 -13.01161,-12.79406 0.0102,-2.88532 1.01199,-5.68255 2.84272,-7.9375 z"
       sodipodi:nodetypes="cccccccccccccccccccccc" />
    <path
       id="path1-7"
       style="fill:#000000;fill-opacity:1;stroke:#000000;stroke-width:0.814207;stroke-linejoin:round;stroke-dasharray:none;stroke-opacity:1"
       d="m 113.34443,73.696132 c -0.24228,0.0048 -0.48461,0.01559 -0.7264,0.03334 -5.90469,0.407518 -11.2707,5.011306 -12.45191,10.831611 -0.454676,1.928165 -0.430526,4.319845 0.13503,6.356561 1.29118,5.485036 6.2877,9.822176 11.90334,10.295736 5.71408,0.67851 11.63854,-2.638263 13.96029,-7.9165 0.79946,-1.746705 1.19622,-3.650782 1.26067,-5.330076 0.34352,-5.842489 -3.57551,-11.540018 -9.09383,-13.429162 -1.59153,-0.588718 -3.29114,-0.874413 -4.98711,-0.841506 z m 30.81104,2.00215 c -6.43513,0.04781 -12.87068,0.04908 -19.30622,0.04048 a 16.258541,16.258535 0 0 1 4.16545,6.488339 h 14.27623 c 0.51524,0.08294 1.11138,-0.03106 1.66238,-0.03493 0.55101,-0.0038 1.05706,0.102314 1.39087,0.625572 0.60698,0.617261 -0.006,1.453037 -0.60414,1.848926 h -16.0942 a 16.258541,16.258535 0 0 1 0.25563,2.845254 16.258541,16.258535 0 0 1 -2.86511,9.17003 c 4.32973,4.870927 8.65959,9.741767 12.98937,14.612837 0.77368,1.04971 1.9929,1.86447 2.45625,3.07785 0.3382,1.10471 -0.60297,1.54683 -1.55758,1.60044 -5.14629,-5.78956 -10.29294,-11.57884 -15.43925,-17.368373 a 16.258541,16.258535 0 0 1 -5.80323,3.963023 c 2.91477,11.65831 5.82979,23.31666 8.74453,34.97491 0.14517,1.15218 0.88009,2.31235 0.61128,3.45891 -0.24435,1.10083 -1.29334,0.98151 -2.11648,0.58349 -3.19118,-12.7611 -6.38273,-25.52203 -9.57412,-38.28297 a 16.258541,16.258535 0 0 1 -3.70421,0.46838 16.258541,16.258535 0 0 1 -3.70659,-0.46838 c -3.00338,12.01684 -6.00692,24.03364 -9.01048,36.0506 -0.40031,0.73443 -0.0648,2.18614 -1.032826,2.36733 -0.90446,0.62557 -1.69949,-0.30745 -1.77985,-1.19716 3.163496,-12.65181 6.327146,-25.30345 9.490756,-37.95511 a 16.258541,16.258535 0 0 1 -5.80084,-3.960643 L 87.996828,114.13924 c -0.69083,0.4916 -1.11374,1.84968 -1.98786,1.7489 -1.148236,0.0959 -1.493571,-1.03911 -1.094754,-1.95531 5.1116,-5.75068 10.22357,-11.50109 15.335266,-17.251676 a 16.258541,16.258535 0 0 1 -2.865086,-9.169231 16.258541,16.258535 0 0 1 0.28102,-2.845254 H 82.315865 c -0.938494,0.225489 -1.839022,-0.729222 -1.581396,-1.656804 0.271043,-0.261038 0.542678,-0.521722 0.81372,-0.78276 h 16.757885 a 16.258541,16.258535 0 0 1 4.191656,-6.505007 c -7.383796,0.0058 -14.767182,0.03242 -22.149878,0.150044 -5.271019,0.907857 -8.050273,8.204288 -4.506821,12.290747 2.172484,2.833933 6.027905,3.246213 9.342306,3.038959 3.744915,-0.05623 7.492297,-0.0063 11.238077,-0.02145 -5.81022,6.660874 -11.870568,13.124042 -17.412033,20.022302 -2.677213,4.83392 1.686949,11.60296 7.177417,11.24522 3.420136,-0.12382 5.840016,-2.85366 7.845856,-5.3126 1.46196,-1.7168 3.00118,-3.366 4.48857,-5.05936 -2.35447,9.50509 -4.82219,18.98714 -6.91544,28.55246 -0.23105,5.51412 6.7078,9.7075 11.454796,6.84796 3.07841,-1.59223 4.00186,-5.20472 4.61002,-8.33805 1.97545,-7.94422 3.98224,-15.88038 5.96994,-23.82178 2.4819,9.7937 4.794,19.63677 7.60054,29.34158 2.5751,4.83301 10.46379,4.78312 13.21405,0.15009 1.89231,-3.31181 0.80053,-7.25655 -0.20483,-10.66649 -1.84017,-7.34524 -3.60863,-14.71062 -5.47534,-22.05063 2.91016,3.2072 5.68593,6.58283 8.92234,9.46059 4.77308,2.83823 11.66709,-1.46184 11.36906,-6.96466 -0.37081,-4.20136 -3.75824,-7.12501 -6.41847,-10.04568 -3.90312,-4.48218 -7.87825,-8.901985 -11.80251,-13.36407 5.68642,-0.09018 11.41272,0.221633 17.06908,-0.399315 5.2688,-1.628583 6.88629,-9.568961 2.60311,-13.080666 -1.76245,-1.456663 -4.1007,-2.082465 -6.3621,-1.998971 z" />
    <path
       id="path3-8"
       style="fill:none;fill-opacity:1;stroke:#000000;stroke-width:0.797;stroke-linejoin:round;stroke-dasharray:none;stroke-opacity:1"
       d="m 116.90234,191.33594 c -2.6143,0.12986 -5.13506,1.09529 -7.2832,2.5625 -1.27846,0.40744 -2.45807,-0.41104 -3.7277,-0.18082 -7.767134,0.11233 -15.538753,-0.11094 -23.303549,0.15933 -2.169822,0.71275 -2.956956,4.09478 -1.12285,5.55241 2.299382,1.63603 4.867368,2.84072 7.263067,4.32524 2.31652,1.36743 4.727977,2.63522 6.990642,4.10478 0.908652,1.0038 0.232847,2.44198 -0.559607,3.28287 -3.200534,4.58719 -6.545882,9.07771 -9.526331,13.81478 -0.62757,2.40236 2.221211,4.971 4.517582,3.82104 2.774493,-1.0266 5.381466,-2.45084 8.145375,-3.5038 0.997456,-0.40632 2.231781,-1.28821 3.247201,-0.45786 0.84912,0.65634 0.89532,1.84361 0.54646,2.77249 -1.24578,7.54079 -2.547869,15.05802 -3.634352,22.62399 0.223569,2.37578 3.753602,3.67752 5.352612,1.82454 1.34258,-1.68471 2.11142,-3.7306 3.24511,-5.55022 3.08018,-5.55011 6.11756,-11.12964 9.22448,-16.66138 1.05336,-1.12877 3.02219,-0.24369 3.29564,1.15668 3.83317,7.05607 7.576,14.18125 11.56966,21.13077 1.69929,1.70839 5.32385,0.47641 5.30503,-2.03999 -0.0175,-2.31285 -0.65569,-4.56016 -0.91567,-6.84934 -0.87728,-5.65519 -1.80878,-11.30743 -2.65218,-16.96446 0.13476,-1.52288 2.19459,-2.05275 3.28501,-1.15509 3.46522,1.36732 6.85492,3.00531 10.44689,3.9975 2.48647,-0.14114 4.08736,-3.59592 2.36202,-5.49377 -3.16021,-4.25155 -6.25329,-8.55272 -9.33737,-12.85991 -0.55708,-0.64709 -1.09146,-1.54255 -0.58573,-2.38258 0.69498,-1.21903 2.19315,-1.53045 3.27987,-2.29317 4.00428,-2.30367 8.11697,-4.46165 11.95735,-7.02302 1.50354,-1.94318 -0.0264,-5.4037 -2.5734,-5.317 -2.64579,-0.13896 -5.29428,0.092 -7.94212,0.0174 -5.49927,0.0406 -11.01937,-0.15869 -16.50438,0.17445 -1.44331,0.50596 -2.51195,-0.8545 -3.75009,-1.30607 -2.05343,-0.96593 -4.35056,-1.40349 -6.61547,-1.28231 z" />
  </g>
</svg>
