<?xml version="1.0" encoding="UTF-8" standalone="no"?>
<!-- Created with Inkscape (http://www.inkscape.org/) -->

<svg
        width="125.99762cm"
        height="230.99564cm"
        viewBox="0 0 96.000004 176.00001"
        version="1.1"
        id="svg1"
        inkscape:version="1.3.2 (091e20e, 2023-11-25, custom)"
        sodipodi:docname="curved.svg"
        inkscape:export-filename="curved.png"
        inkscape:export-xdpi="3.8705494"
        inkscape:export-ydpi="3.8705494"
        xmlns:inkscape="http://www.inkscape.org/namespaces/inkscape"
        xmlns:sodipodi="http://sodipodi.sourceforge.net/DTD/sodipodi-0.dtd"
        xmlns="http://www.w3.org/2000/svg"
>
  <sodipodi:namedview
     id="namedview1"
     pagecolor="#ffffff"
     bordercolor="#000000"
     borderopacity="0.25"
     inkscape:showpageshadow="2"
     inkscape:pageopacity="0.0"
     inkscape:pagecheckerboard="0"
     inkscape:deskcolor="#d1d1d1"
     inkscape:document-units="cm"
     showgrid="true"
     inkscape:zoom="0.16926207"
     inkscape:cx="2005.7654"
     inkscape:cy="5695.3102"
     inkscape:window-width="1920"
     inkscape:window-height="974"
     inkscape:window-x="-9"
     inkscape:window-y="-9"
     inkscape:window-maximized="1"
     inkscape:current-layer="layer1">
    <inkscape:grid
       id="grid1"
       units="mm"
       originx="-16"
       originy="15.999999"
       spacingx="4"
       spacingy="4"
       empcolor="#000000"
       empopacity="0.64313725"
       color="#8988ff"
       opacity="0.51372549"
       empspacing="4"
       dotted="false"
       gridanglex="30"
       gridanglez="30"
       visible="true" />
  </sodipodi:namedview>
  <defs
     id="defs1" />
  <g
     inkscape:label="Слой 1"
     inkscape:groupmode="layer"
     id="layer1"
     transform="translate(-16,15.999999)">
    <rect
       style="fill:#0000ff;stroke-width:0.434294;stroke-linejoin:round;fill-opacity:1"
       id="rect2"
       width="31.999996"
       height="47.999996"
       x="47.999996"
       y="95.999992" />
    <rect
       style="fill:#ffffff;fill-opacity:1;stroke:none;stroke-width:5.7;stroke-linejoin:round"
       id="rect1"
       width="96"
       height="176"
       x="16"
       y="-15.999999" />
    <rect
       style="fill:#0000ff;fill-opacity:1;stroke:none;stroke-width:5.7;stroke-linejoin:round;stroke-dasharray:none;stroke-opacity:0.496466"
       id="rect9"
       width="95.999992"
       height="80.020157"
       x="16.000006"
       y="79.979843" />
    <path
       style="fill:#0000ff;fill-opacity:1;stroke:none;stroke-width:5.7;stroke-linejoin:round;stroke-dasharray:none;stroke-opacity:0.496466"
       d="m 24.000005,31.999999 c 0,4 4,8 8,12 4,4 16.362761,16.362759 20.000002,19.999999 3.637241,3.63724 7.999995,7.999996 11.999995,7.999996 4,0 8.00001,-3.999996 12,-7.999996 4,-4 16,-15.999999 20,-19.999999 4.000008,-4 7.999998,-8 7.999998,-12 0,-4 -4,-8 -7.999998,-12 -4,-4 -16,-15.999999 -20,-19.999999 -4,-4 -8,-8.0000005 -12,-8.0000005 -4,0 -8,4.0000005 -11.999995,8.0000005 -3.999998,4 -16.000002,16 -20,19.999999 -3.999998,3.999999 -8.000002,8 -8.000002,12 z"
       id="path4-6"
       sodipodi:nodetypes="zzzzzzzzzzzzz" />
    <path
       style="fill:#ffffff;fill-opacity:1;stroke:#8181ff;stroke-width:5.7;stroke-linejoin:round;stroke-dasharray:none;stroke-opacity:1"
       d="m 64,87.999952 c -7.999996,-0.02015 -8,4.9e-5 -16,4.9e-5 -8,0 -12,4.000001 -16,8 v 0 C 28,100 24,104 24.000003,111.97985 c 3e-6,7.97985 3e-6,7.97985 0,16 C 24,136 27.396186,139.45774 32,144 c 4.603814,4.54226 -4.603814,-4.54226 0,0 4.603814,4.54226 8,8 16.000003,7.97985 8.000003,-0.0202 8.000001,-1e-4 15.999997,0.0202 7.999996,0.0202 11.999996,-3.97985 15.999996,-7.97985 v 0 c 4,-4 8.000004,-8 8.000004,-16.02015 v -16 c 0,-7.97985 -4.000004,-11.97985 -8.000004,-15.979846 -4.000002,-4 3.999998,3.999996 0,0 -4,-3.999999 -8,-8 -15.999996,-8.020152 z"
       id="path7"
       sodipodi:nodetypes="zzzzzzzzzzzzzzzzzz" />
    <path
       style="fill:none;fill-opacity:1;stroke:#7f7fff;stroke-width:5.7;stroke-linejoin:round;stroke-dasharray:none;stroke-opacity:1"
       d="M 24.000001,31.999999 C 24.000002,39.999998 28,44 32,48 l 16,16.000001 c 3.637241,3.63724 8,8 16.000001,7.999997 C 72.000002,71.999995 76.000002,68.000001 80,64.000001 83.999998,60.000001 91.999997,52 95.999999,48 100.00001,44 104,40 104,31.999999 104,23.999998 99.999995,20 95.999999,16 92.000001,12 83.999998,3.9999999 80,1.4882528e-7 76.000002,-3.9999997 72.000002,-7.9999997 64.000001,-7.9999998 56,-7.9999999 51.999998,-3.9999999 48,1.4882528e-7 44.000002,4.0000001 35.999998,12.000001 32,16 c -3.999998,3.999999 -8,8 -7.999999,15.999999 z"
       id="path4"
       sodipodi:nodetypes="zzzzzzzzzzzzz" />
    <path
       style="fill:#ffffff;fill-opacity:1;stroke:#7f7fff;stroke-width:5.7;stroke-linejoin:round;stroke-dasharray:none;stroke-opacity:1"
       d="m 64,24 v 0 c 4,0 8,4 8,8 v 0 c 0,4 -4,8 -8,8 v 0 c -4,0 -8,-4 -8,-8 v 0 c 0,-4 4,-8 8,-8 z"
       id="path9"
       sodipodi:nodetypes="zzzzzzzzz" />
  </g>
</svg>
